<?xml version="1.0" encoding="UTF-8" standalone="no"?><svg xmlns="http://www.w3.org/2000/svg" xmlns:xlink="http://www.w3.org/1999/xlink" contentStyleType="text/css" height="484px" preserveAspectRatio="none" style="width:398px;height:484px;background:#191919;" version="1.1" viewBox="0 0 398 484" width="398px" zoomAndPan="magnify"><defs/><g><!--MD5=[4b67819c4d56c0cb1fd8273d55e018d3]
class Mod--><g id="elem_Mod"><rect codeLine="4" fill="#0E0E0E" height="48" id="Mod" rx="2.5" ry="2.5" style="stroke:#E7E7E7;stroke-width:0.5;" width="83" x="261" y="31.5"/><ellipse cx="276" cy="47.5" fill="#3D3D3D" rx="11" ry="11" style="stroke:#E7E7E7;stroke-width:1.0;"/><path d="M278.9688,53.1406 Q278.3906,53.4375 277.75,53.5781 Q277.1094,53.7344 276.4063,53.7344 Q273.9063,53.7344 272.5781,52.0938 Q271.2656,50.4375 271.2656,47.3125 Q271.2656,44.1875 272.5781,42.5313 Q273.9063,40.875 276.4063,40.875 Q277.1094,40.875 277.75,41.0313 Q278.4063,41.1875 278.9688,41.4844 L278.9688,44.2031 Q278.3438,43.625 277.75,43.3594 Q277.1563,43.0781 276.5313,43.0781 Q275.1875,43.0781 274.5,44.1563 Q273.8125,45.2188 273.8125,47.3125 Q273.8125,49.4063 274.5,50.4844 Q275.1875,51.5469 276.5313,51.5469 Q277.1563,51.5469 277.75,51.2813 Q278.3438,51 278.9688,50.4219 L278.9688,53.1406 Z " fill="#FFFFFF"/><text fill="#FFFFFF" font-family="sans-serif" font-size="14" lengthAdjust="spacing" textLength="51" x="290" y="52.3467">Module</text><line style="stroke:#E7E7E7;stroke-width:0.5;" x1="262" x2="343" y1="63.5" y2="63.5"/><line style="stroke:#E7E7E7;stroke-width:0.5;" x1="262" x2="343" y1="71.5" y2="71.5"/></g><!--MD5=[f2b0b961b4f23b5d9db20968b689c349]
class TU--><g id="elem_TU"><rect codeLine="6" fill="#0E0E0E" height="96.8906" id="TU" rx="2.5" ry="2.5" style="stroke:#E7E7E7;stroke-width:0.5;" width="180" x="45.5" y="7"/><ellipse cx="78.95" cy="23" fill="#3D3D3D" rx="11" ry="11" style="stroke:#E7E7E7;stroke-width:1.0;"/><path d="M81.9188,28.6406 Q81.3406,28.9375 80.7,29.0781 Q80.0594,29.2344 79.3563,29.2344 Q76.8563,29.2344 75.5281,27.5938 Q74.2156,25.9375 74.2156,22.8125 Q74.2156,19.6875 75.5281,18.0313 Q76.8563,16.375 79.3563,16.375 Q80.0594,16.375 80.7,16.5313 Q81.3563,16.6875 81.9188,16.9844 L81.9188,19.7031 Q81.2938,19.125 80.7,18.8594 Q80.1063,18.5781 79.4813,18.5781 Q78.1375,18.5781 77.45,19.6563 Q76.7625,20.7188 76.7625,22.8125 Q76.7625,24.9063 77.45,25.9844 Q78.1375,27.0469 79.4813,27.0469 Q80.1063,27.0469 80.7,26.7813 Q81.2938,26.5 81.9188,25.9219 L81.9188,28.6406 Z " fill="#FFFFFF"/><text fill="#FFFFFF" font-family="sans-serif" font-size="14" lengthAdjust="spacing" textLength="107" x="97.05" y="27.8467">Translation Unit</text><line style="stroke:#E7E7E7;stroke-width:0.5;" x1="46.5" x2="224.5" y1="39" y2="39"/><text fill="#FFFFFF" font-family="sans-serif" font-size="14" lengthAdjust="spacing" textLength="168" x="51.5" y="55.9951">Contains class, function,</text><text fill="#FFFFFF" font-family="sans-serif" font-size="14" lengthAdjust="spacing" textLength="127" x="51.5" y="72.292">variable definitions</text><line style="stroke:#E7E7E7;stroke-width:1.0;stroke-dasharray:1.0,2.0;" x1="46.5" x2="224.5" y1="79.5938" y2="79.5938"/><text fill="#FFFFFF" font-family="sans-serif" font-size="14" lengthAdjust="spacing" textLength="139" x="51.5" y="96.5889">Can import modules</text></g><!--MD5=[28fed5458504ed400eeda8665102bba4]
class MU--><g id="elem_MU"><rect codeLine="13" fill="#0E0E0E" height="48" id="MU" rx="2.5" ry="2.5" style="stroke:#E7E7E7;stroke-width:0.5;" width="114" x="106.5" y="164"/><ellipse cx="121.5" cy="180" fill="#3D3D3D" rx="11" ry="11" style="stroke:#E7E7E7;stroke-width:1.0;"/><path d="M124.4688,185.6406 Q123.8906,185.9375 123.25,186.0781 Q122.6094,186.2344 121.9063,186.2344 Q119.4063,186.2344 118.0781,184.5938 Q116.7656,182.9375 116.7656,179.8125 Q116.7656,176.6875 118.0781,175.0313 Q119.4063,173.375 121.9063,173.375 Q122.6094,173.375 123.25,173.5313 Q123.9063,173.6875 124.4688,173.9844 L124.4688,176.7031 Q123.8438,176.125 123.25,175.8594 Q122.6563,175.5781 122.0313,175.5781 Q120.6875,175.5781 120,176.6563 Q119.3125,177.7188 119.3125,179.8125 Q119.3125,181.9063 120,182.9844 Q120.6875,184.0469 122.0313,184.0469 Q122.6563,184.0469 123.25,183.7813 Q123.8438,183.5 124.4688,182.9219 L124.4688,185.6406 Z " fill="#FFFFFF"/><text fill="#FFFFFF" font-family="sans-serif" font-size="14" lengthAdjust="spacing" textLength="82" x="135.5" y="184.8467">Module Unit</text><line style="stroke:#E7E7E7;stroke-width:0.5;" x1="107.5" x2="219.5" y1="196" y2="196"/><line style="stroke:#E7E7E7;stroke-width:0.5;" x1="107.5" x2="219.5" y1="204" y2="204"/></g><!--MD5=[129d4bc9d4265a2eac903a556fb073c6]
class MIU--><g id="elem_MIU"><rect codeLine="16" fill="#0E0E0E" height="64.2969" id="MIU" rx="2.5" ry="2.5" style="stroke:#E7E7E7;stroke-width:0.5;" width="178" x="213.5" y="280.5"/><ellipse cx="228.5" cy="296.5" fill="#3D3D3D" rx="11" ry="11" style="stroke:#E7E7E7;stroke-width:1.0;"/><path d="M231.4688,302.1406 Q230.8906,302.4375 230.25,302.5781 Q229.6094,302.7344 228.9063,302.7344 Q226.4063,302.7344 225.0781,301.0938 Q223.7656,299.4375 223.7656,296.3125 Q223.7656,293.1875 225.0781,291.5313 Q226.4063,289.875 228.9063,289.875 Q229.6094,289.875 230.25,290.0313 Q230.9063,290.1875 231.4688,290.4844 L231.4688,293.2031 Q230.8438,292.625 230.25,292.3594 Q229.6563,292.0781 229.0313,292.0781 Q227.6875,292.0781 227,293.1563 Q226.3125,294.2188 226.3125,296.3125 Q226.3125,298.4063 227,299.4844 Q227.6875,300.5469 229.0313,300.5469 Q229.6563,300.5469 230.25,300.2813 Q230.8438,300 231.4688,299.4219 L231.4688,302.1406 Z " fill="#FFFFFF"/><text fill="#FFFFFF" font-family="sans-serif" font-size="14" lengthAdjust="spacing" textLength="146" x="242.5" y="301.3467">Module Interface Unit</text><line style="stroke:#E7E7E7;stroke-width:0.5;" x1="214.5" x2="390.5" y1="312.5" y2="312.5"/><text fill="#FFFFFF" font-family="sans-serif" font-size="14" lengthAdjust="spacing" textLength="136" x="219.5" y="329.4951">Can export symbols</text><line style="stroke:#E7E7E7;stroke-width:0.5;" x1="214.5" x2="390.5" y1="336.7969" y2="336.7969"/></g><!--MD5=[700e55c49127fcf6779e649deee2df4c]
class MP--><g id="elem_MP"><rect codeLine="20" fill="#0E0E0E" height="80.5938" id="MP" rx="2.5" ry="2.5" style="stroke:#E7E7E7;stroke-width:0.5;" width="171" x="7" y="272"/><ellipse cx="34.6" cy="288" fill="#3D3D3D" rx="11" ry="11" style="stroke:#E7E7E7;stroke-width:1.0;"/><path d="M37.5688,293.6406 Q36.9906,293.9375 36.35,294.0781 Q35.7094,294.2344 35.0063,294.2344 Q32.5063,294.2344 31.1781,292.5938 Q29.8656,290.9375 29.8656,287.8125 Q29.8656,284.6875 31.1781,283.0313 Q32.5063,281.375 35.0063,281.375 Q35.7094,281.375 36.35,281.5313 Q37.0063,281.6875 37.5688,281.9844 L37.5688,284.7031 Q36.9438,284.125 36.35,283.8594 Q35.7563,283.5781 35.1313,283.5781 Q33.7875,283.5781 33.1,284.6563 Q32.4125,285.7188 32.4125,287.8125 Q32.4125,289.9063 33.1,290.9844 Q33.7875,292.0469 35.1313,292.0469 Q35.7563,292.0469 36.35,291.7813 Q36.9438,291.5 37.5688,290.9219 L37.5688,293.6406 Z " fill="#FFFFFF"/><text fill="#FFFFFF" font-family="sans-serif" font-size="14" lengthAdjust="spacing" textLength="111" x="51.4" y="292.8467">Module Partition</text><line style="stroke:#E7E7E7;stroke-width:0.5;" x1="8" x2="177" y1="304" y2="304"/><text fill="#FFFFFF" font-family="sans-serif" font-size="14" lengthAdjust="spacing" textLength="159" x="13" y="320.9951">Can be imported within</text><text fill="#FFFFFF" font-family="sans-serif" font-size="14" lengthAdjust="spacing" textLength="121" x="13" y="337.292">the same module</text><line style="stroke:#E7E7E7;stroke-width:0.5;" x1="8" x2="177" y1="344.5938" y2="344.5938"/></g><!--MD5=[02d694cbf30524ea35a7cc5449a5825f]
class MIP--><g id="elem_MIP"><rect codeLine="25" fill="#0E0E0E" height="64.2969" id="MIP" rx="2.5" ry="2.5" style="stroke:#E7E7E7;stroke-width:0.5;" width="207" x="94" y="413"/><ellipse cx="109" cy="429" fill="#3D3D3D" rx="11" ry="11" style="stroke:#E7E7E7;stroke-width:1.0;"/><path d="M111.9688,434.6406 Q111.3906,434.9375 110.75,435.0781 Q110.1094,435.2344 109.4063,435.2344 Q106.9063,435.2344 105.5781,433.5938 Q104.2656,431.9375 104.2656,428.8125 Q104.2656,425.6875 105.5781,424.0313 Q106.9063,422.375 109.4063,422.375 Q110.1094,422.375 110.75,422.5313 Q111.4063,422.6875 111.9688,422.9844 L111.9688,425.7031 Q111.3438,425.125 110.75,424.8594 Q110.1563,424.5781 109.5313,424.5781 Q108.1875,424.5781 107.5,425.6563 Q106.8125,426.7188 106.8125,428.8125 Q106.8125,430.9063 107.5,431.9844 Q108.1875,433.0469 109.5313,433.0469 Q110.1563,433.0469 110.75,432.7813 Q111.3438,432.5 111.9688,431.9219 L111.9688,434.6406 Z " fill="#FFFFFF"/><text fill="#FFFFFF" font-family="sans-serif" font-size="14" lengthAdjust="spacing" textLength="175" x="123" y="433.8467">Module Interface Partition</text><line style="stroke:#E7E7E7;stroke-width:0.5;" x1="95" x2="300" y1="445" y2="445"/><text fill="#FFFFFF" font-family="sans-serif" font-size="14" lengthAdjust="spacing" textLength="134" x="100" y="461.9951">Can be re-exported</text><line style="stroke:#E7E7E7;stroke-width:0.5;" x1="95" x2="300" y1="469.2969" y2="469.2969"/></g><!--MD5=[68a8a204d8746b000ebfff3ace03b12a]
reverse link TU to MU--><g id="link_TU_MU"><path codeLine="29" d="M150.04,124.24 C153.08,138.44 156.09,152.48 158.49,163.66 " fill="none" id="TU-backto-MU" style="stroke:#E7E7E7;stroke-width:1.0;"/><polygon fill="none" points="143.12,125.38,145.77,104.35,156.81,122.44,143.12,125.38" style="stroke:#E7E7E7;stroke-width:1.0;"/></g><!--MD5=[518f4b864639aa8cfa95f373eefa23d1]
reverse link MU to MIU--><g id="link_MU_MIU"><path codeLine="30" d="M204.65,225.27 C224.56,242.82 248.22,263.67 267.29,280.47 " fill="none" id="MU-backto-MIU" style="stroke:#E7E7E7;stroke-width:1.0;"/><polygon fill="none" points="200.02,230.52,189.64,212.04,209.28,220.01,200.02,230.52" style="stroke:#E7E7E7;stroke-width:1.0;"/></g><!--MD5=[57abd3f0125a99717e16f84188d52f4f]
reverse link MU to MP--><g id="link_MU_MP"><path codeLine="31" d="M139.85,229.8 C132.04,243.29 123.35,258.27 115.57,271.69 " fill="none" id="MU-backto-MP" style="stroke:#E7E7E7;stroke-width:1.0;"/><polygon fill="none" points="134.06,225.83,150.15,212.04,146.17,232.86,134.06,225.83" style="stroke:#E7E7E7;stroke-width:1.0;"/></g><!--MD5=[3c93bd26fdb616f3de9903aaab24de85]
reverse link MP to MIP--><g id="link_MP_MIP"><path codeLine="33" d="M137.08,368.91 C149.19,383.96 161.88,399.73 172.48,412.91 " fill="none" id="MP-backto-MIP" style="stroke:#E7E7E7;stroke-width:1.0;"/><polygon fill="none" points="131.37,372.98,124.29,353.01,142.28,364.2,131.37,372.98" style="stroke:#E7E7E7;stroke-width:1.0;"/></g><!--MD5=[26a35315f3e5147ed6f0c2b07e00281f]
reverse link MIU to MIP--><g id="link_MIU_MIP"><path codeLine="34" d="M264.74,360.43 C250.68,377.91 235.08,397.3 222.44,413 " fill="none" id="MIU-backto-MIP" style="stroke:#E7E7E7;stroke-width:1.0;"/><polygon fill="none" points="259.36,355.95,277.35,344.76,270.27,364.73,259.36,355.95" style="stroke:#E7E7E7;stroke-width:1.0;"/></g><!--MD5=[4f2a5227117b2524be2a2c7c4fdfe04f]
reverse link Mod to MU--><g id="link_Mod_MU"><path codeLine="37" d="M268.23,88.67 C243.44,111.95 210.52,142.86 188.25,163.76 " fill="none" id="Mod-backto-MU" style="stroke:#E7E7E7;stroke-width:1.0;"/><polygon fill="#E7E7E7" points="277.97,79.53,270.8575,80.7183,269.2188,87.7408,276.3314,86.5525,277.97,79.53" style="stroke:#E7E7E7;stroke-width:1.0;"/><text fill="#FFFFFF" font-family="sans-serif" font-size="13" lengthAdjust="spacing" textLength="8" x="262.6592" y="99.6935">1</text><text fill="#FFFFFF" font-family="sans-serif" font-size="13" lengthAdjust="spacing" textLength="8" x="185.3078" y="153.1065">n</text></g><!--MD5=[5ab6c74f8f1b57502d18ad9c2480da5a]
reverse link Mod to MIU--><g id="link_Mod_MIU"><path codeLine="38" d="M302.5,92.63 C302.5,142.89 302.5,233.05 302.5,280.45 " fill="none" id="Mod-backto-MIU" style="stroke:#E7E7E7;stroke-width:1.0;"/><polygon fill="#E7E7E7" points="302.5,79.58,298.5,85.58,302.5,91.58,306.5,85.58,302.5,79.58" style="stroke:#E7E7E7;stroke-width:1.0;"/><text fill="#FFFFFF" font-family="sans-serif" font-size="13" lengthAdjust="spacing" textLength="8" x="293.475" y="99.7563">1</text><text fill="#FFFFFF" font-family="sans-serif" font-size="13" lengthAdjust="spacing" textLength="8" x="293.675" y="269.3428">1</text></g><!--MD5=[9596f5908442f419b42e0f5d0d5d5380]
@startuml
skinparam monochrome reverse
skinparam BackgroundColor #e6e6e6

class "Module" as Mod

class "Translation Unit" as TU {
  Contains class, function, 
  variable definitions
  ..
  Can import modules
}

class "Module Unit" as MU {
}

class "Module Interface Unit" as MIU {
  Can export symbols
}

class "Module Partition" as MP {
  Can be imported within
  the same module
}

class "Module Interface Partition" as MIP {
  Can be re-exported
}

TU <|- - MU
MU <|- - MIU
MU <|- - MP

MP <|- - MIP
MIU <|- - MIP


Mod "1" *- - "n" MU
Mod "1" *- - "1" MIU
@enduml

PlantUML version 1.2022.7(Mon Aug 22 19:01:30 CEST 2022)
(GPL source distribution)
Java Runtime: OpenJDK Runtime Environment
JVM: OpenJDK 64-Bit Server VM
Default Encoding: UTF-8
Language: de
Country: DE
--></g></svg>